<svg width="800" height="800" viewBox="0 0 24 24" xmlns="http://www.w3.org/2000/svg"><path d="M21.15 5.89A11 11 0 1 0 23 12a11 11 0 0 0-1.85-6.11M19.48 17A9 9 0 1 1 21 12a9 9 0 0 1-1.52 5M15 11V9a3 3 0 0 0-6 0v2a1 1 0 0 0-1 1v4a1 1 0 0 0 1 1h6a1 1 0 0 0 1-1v-4a1 1 0 0 0-1-1m-1.5 0h-3V9a1.5 1.5 0 0 1 3 0Z"/><path d="M19.29 15.06a1 1 0 0 0 .18-.26.8.8 0 0 0 .07-.31.8.8 0 0 0-.07-.3 1 1 0 0 0-.18-.26.8.8 0 0 0-.28-.15.8.8 0 0 0-.31 0 .7.7 0 0 0-.37.11.8.8 0 0 0-.26.28H16v.7h2.05a.7.7 0 0 0 .27.29.73.73 0 0 0 .38.11.8.8 0 0 0 .31 0 .76.76 0 0 0 .28-.21m-.29-.57a.27.27 0 0 1-.28.28.2.2 0 0 1-.11 0 .28.28 0 0 1-.15-.15.2.2 0 0 1 0-.11.27.27 0 0 1 .28-.28.2.2 0 0 1 .11 0 .2.2 0 0 1 .1.06.2.2 0 0 1 .06.09.2.2 0 0 1 0 .11Zm.26-3.94 1.32-1.32q.12.39.21.78l-1.25 1.24h-1.75V12h-.7v-1.4ZM9.8 19h.69v1.14l-.55.56c-.26-.06-.52-.13-.77-.21l.63-.63Zm2.56-.61V17h-.7v1.43a.8.8 0 0 0-.29.26.7.7 0 0 0-.11.37.75.75 0 0 0 .75.75.9.9 0 0 0 .28 0 .8.8 0 0 0 .25-.16.8.8 0 0 0 .16-.24.7.7 0 0 0 .06-.28.74.74 0 0 0-.4-.65Zm-.15.83a.28.28 0 0 1-.48-.2.27.27 0 0 1 .28-.28.28.28 0 0 1 .2.48M21 12a2 2 0 0 1 0 .21l-1 1h-4v-.7h3.7l1.3-1.26zm-6.16-3.91 3-3a6 6 0 0 1 .52.47L15 8.93a2.7 2.7 0 0 0-.16-.84M5.3 13.75a.8.8 0 0 0-.31 0 .8.8 0 0 0-.28.15 1 1 0 0 0-.18.26.8.8 0 0 0-.07.3.8.8 0 0 0 .07.31 1 1 0 0 0 .18.26.8.8 0 0 0 .28.15.8.8 0 0 0 .31 0 .74.74 0 0 0 .65-.4H8v-.7H6a.76.76 0 0 0-.3-.29.8.8 0 0 0-.4-.04m.18.92a.27.27 0 0 1-.19.08h-.1a.2.2 0 0 1-.1-.06.18.18 0 0 1-.09-.11.2.2 0 0 1 0-.11.4.4 0 0 1 0-.11l.06-.09.09-.06h.11a.28.28 0 0 1 .2.48Zm11.61 1.76 1.6 1.57c-.16.17-.33.32-.5.48l-1.38-1.37h-1.16v1.54l1 1c-.21.12-.43.22-.65.33L15 19v-1.87h-1v1.44h-.7V17H15a.92.92 0 0 0 .89-.57ZM12 4.1a.75.75 0 0 0-.53.22.7.7 0 0 0-.22.52.8.8 0 0 0 .12.38.8.8 0 0 0 .29.28V6H12a2 2 0 0 1 .36 0v-.5a.8.8 0 0 0 .29-.28.7.7 0 0 0 .11-.38.8.8 0 0 0-.24-.52.82.82 0 0 0-.52-.22m.23.9a.3.3 0 0 1-.12.1.22.22 0 0 1-.16 0 .24.24 0 0 1-.22-.22.22.22 0 0 1 0-.16.3.3 0 0 1 .1-.12.3.3 0 0 1 .17-.04h.11l.09.06.06.09a.4.4 0 0 1 0 .11.3.3 0 0 1-.03.18M9 17h.05v1.94L8 20c-.22-.11-.42-.23-.63-.35l1-1v-1.13l-.81.82H5.93v.28a4 4 0 0 1-.29-.26c-.15-.14-.27-.31-.41-.47v-.25h2l1-1v.08A1 1 0 0 0 9 17m-4.82-3.79L3 12.05v-1l1.44 1.43H8v.7Zm1-4.8a.73.73 0 0 0 .2.35.72.72 0 0 0 1 0 .75.75 0 0 0 0-1 .75.75 0 0 0-.72-.19l-.9-.93c-.14.18-.27.36-.39.55l.86.81a.7.7 0 0 0-.01.41ZM5.74 8a.29.29 0 0 1 .38 0 .28.28 0 0 1 .08.2.27.27 0 0 1-.08.19.29.29 0 0 1-.38 0 .35.35 0 0 1-.06-.19.36.36 0 0 1 .06-.2m2.35 8.41H4.43l-.16.16c-.12-.21-.24-.41-.34-.63l.23-.23H8V16a1.2 1.2 0 0 0 .09.41M14 19.25l1 1.05v.15c-.23.08-.46.17-.7.23v-.08l-.86-.86ZM17.67 8a.7.7 0 0 0-.35.17.75.75 0 0 0 0 1 .75.75 0 0 0 1 0 .79.79 0 0 0 .18-.72l1.15-1.15c-.12-.19-.24-.38-.37-.56L18.05 8a.7.7 0 0 0-.38 0m.46.68a.2.2 0 0 1 0 .11.4.4 0 0 1-.05.09.24.24 0 0 1-.09.06.3.3 0 0 1-.22 0 .24.24 0 0 1-.09-.06.29.29 0 0 1 0-.38.32.32 0 0 1 .19-.07.3.3 0 0 1 .18.07.3.3 0 0 1 .07.08.4.4 0 0 1 .01.08Zm1.36 7.17.42.42c-.12.21-.23.43-.36.63l-.55-.58ZM4.72 11 3.33 9.63c.07-.24.15-.49.24-.73L5 10.32h1.44v-.65h.7V11Zm9.62-6.71h-.7V3.16c.24 0 .47.1.7.16Zm.56 1.51a.53.53 0 0 0 .28.07.7.7 0 0 0 .32-.08.7.7 0 0 0 .26-.21.7.7 0 0 0 .14-.31.74.74 0 0 0 0-.33l.7-.7-.65-.35-.54.54a.74.74 0 0 0-.39 0 .63.63 0 0 0-.33.2.75.75 0 0 0 0 1 .6.6 0 0 0 .21.19ZM15 5a.29.29 0 0 1 .38 0 .24.24 0 0 1 .06.09.3.3 0 0 1 0 .22.24.24 0 0 1-.06.09.29.29 0 0 1-.38 0 .29.29 0 0 1 0-.4M9.36 3.4l1.46 1.47v1.38a3 3 0 0 0-.7.43V5.15L8.65 3.67a8 8 0 0 1 .71-.27M8.12 5.51l-1-1c.2-.13.41-.24.63-.36l.9.9Zm-1.93-.36 3 3A3.4 3.4 0 0 0 9 9L5.68 5.62c.16-.16.32-.32.51-.47" opacity=".5"/><path fill="none" d="M0 0h24v24H0z"/></svg>