<?xml version="1.0" encoding="iso-8859-1"?>
<!-- Generator: Adobe Illustrator 19.0.0, SVG Export Plug-In . SVG Version: 6.00 Build 0)  -->
<!-- License: CC0. Made by SVG Repo: https://www.svgrepo.com/svg/219903/microchip -->
<svg version="1.1" id="Layer_1" xmlns="http://www.w3.org/2000/svg" xmlns:xlink="http://www.w3.org/1999/xlink" x="0px" y="0px"
	 viewBox="0 0 512 512" style="enable-background:new 0 0 512 512;" xml:space="preserve">
<g>
	<g>
		<path d="M118.568,118.568v274.863h274.863V118.568H118.568z M377.263,377.263H134.737V134.737h242.526V377.263z"/>
	</g>
</g>
<g>
	<g>
		<rect x="180.547" y="161.684" width="150.905" height="16.168"/>
	</g>
</g>
<g>
	<g>
		<rect x="180.547" y="237.137" width="150.905" height="16.168"/>
	</g>
</g>
<g>
	<g>
		<rect x="180.547" y="199.41" width="26.947" height="16.168"/>
	</g>
</g>
<g>
	<g>
		<rect x="180.547" y="334.147" width="26.947" height="16.168"/>
	</g>
</g>
<g>
	<g>
		<rect x="223.663" y="334.147" width="26.947" height="16.168"/>
	</g>
</g>
<g>
	<g>
		<rect x="299.116" y="334.147" width="26.947" height="16.168"/>
	</g>
</g>
<g>
	<g>
		<rect x="239.832" y="199.41" width="91.621" height="16.168"/>
	</g>
</g>
<g>
	<g>
		<path d="M512,177.853v-59.284h-75.453V94.316c0-10.401-8.463-18.863-18.863-18.863h-24.253V5.389h-59.284v70.063h-48.505V5.389
			h-59.284v70.063h-48.505V5.389h-59.284v70.063H94.316c-10.401,0-18.863,8.463-18.863,18.863v24.253H0v59.284h75.453v48.505H0
			v59.284h75.453v48.505H0v59.284h75.453v24.253c0,10.401,8.463,18.863,18.863,18.863h24.253v70.063h59.284v-70.063h48.505v70.063
			h59.284v-70.063h48.505v70.063h59.284v-70.063h24.253c10.401,0,18.863-8.463,18.863-18.863v-24.253H512v-59.284h-75.453v-48.505
			H512v-59.284h-75.453v-48.505H512z M468.884,134.737h26.947v26.947h-26.947V134.737z M436.547,134.737h16.168v26.947h-16.168
			V134.737z M43.116,377.263H16.168v-26.947h26.947V377.263z M75.453,377.263H59.284v-26.947h16.168V377.263z M43.116,269.474
			H16.168v-26.947h26.947V269.474z M75.453,269.474H59.284v-26.947h16.168V269.474z M43.116,161.684H16.168v-26.947h26.947V161.684z
			 M75.453,161.684H59.284v-26.947h16.168V161.684z M350.316,21.558h26.947v21.558h-26.947V21.558z M350.316,59.284h26.947v16.168
			h-26.947V59.284z M242.526,21.558h26.947v21.558h-26.947V21.558z M242.526,59.284h26.947v16.168h-26.947V59.284z M134.737,21.558
			h26.947v21.558h-26.947V21.558z M134.737,59.284h26.947v16.168h-26.947V59.284z M161.684,490.442h-26.947v-21.558h26.947V490.442z
			 M161.684,452.716h-26.947v-16.168h26.947V452.716z M269.474,490.442h-26.947v-21.558h26.947V490.442z M269.474,452.716h-26.947
			v-16.168h26.947V452.716z M377.263,490.442h-26.947v-21.558h26.947V490.442z M377.263,452.716h-26.947v-16.168h26.947V452.716z
			 M420.379,417.684c0,1.461-1.234,2.695-2.695,2.695H94.316c-1.461,0-2.695-1.234-2.695-2.695V94.316
			c0-1.461,1.234-2.695,2.695-2.695h323.368c1.461,0,2.695,1.234,2.695,2.695V417.684z M468.884,350.316h26.947v26.947h-26.947
			V350.316z M452.716,350.316v26.947h-16.168v-26.947H452.716z M468.884,242.526h26.947v26.947h-26.947V242.526z M452.716,242.526
			v26.947h-16.168v-26.947H452.716z"/>
	</g>
</g>
</svg>
