<svg width="256px" height="256px" viewBox="0 0 256 256" id="icon" xmlns="http://www.w3.org/2000/svg"><defs><style>.cls-1{fill:none;}</style></defs><title>iot--platform</title><path d="M240 152h-32v-32h-16v72H64V64h72V48h-32V16h-16v32H64a16 16 0 0 0 -16 16v24H16v16h32v48H16v16h32v24a16 16 0 0 0 16 16h24v32h16v-32h48v32h16v-32h24a16.024 16.024 0 0 0 16 -16v-24h32Z"/><path d="M168 168H88V88h80Zm-64 -16h48v-48h-48Z"/><path d="M248 104h-16A80.08 80.08 0 0 0 152 24V8a96.104 96.104 0 0 1 96 96"/><path d="M208 104h-16a40.048 40.048 0 0 0 -40 -40V48a56.08 56.08 0 0 1 56 56"/><path id="_Transparent_Rectangle_" data-name="&amp;lt;Transparent Rectangle&amp;gt;" class="cls-1" width="32" height="32" d="M0 0H256V256H0V0z"/></svg>