<svg width="128px" height="128px" viewBox="0 0 128 128" xmlns="http://www.w3.org/2000/svg"><path d="M111.664 40.16C102.544 21.968 84.283 10.667 64 10.667 34.592 10.667 10.667 34.592 10.667 64s23.925 53.333 53.333 53.333c20.283 0 38.544 -11.301 47.664 -29.493a5.333 5.333 0 0 0 -2.117 -7.019L80.091 64l29.451 -16.816c2.459 -1.408 3.392 -4.491 2.123 -7.024m-44.976 19.211a5.328 5.328 0 0 0 0 9.259l32.923 18.8A42.4 42.4 0 0 1 64 106.667c-23.525 0 -42.667 -19.141 -42.667 -42.667s19.141 -42.667 42.667 -42.667a42.4 42.4 0 0 1 35.611 19.232z"/><path cx="11.5" cy="7.5" r="1.5" d="M69.333 40A8 8 0 0 1 61.333 48A8 8 0 0 1 53.333 40A8 8 0 0 1 69.333 40z"/></svg>