<svg width="800" height="800" viewBox="0 0 48 48" xmlns="http://www.w3.org/2000/svg"><g data-name="Layer 2"><g data-name="invisible box" fill="none"><path d="M0 0h48v48H0z"/><path d="M0 0h48v48H0z"/></g><g data-name="icons Q2"><path d="M10 19.3h4.4v4.44H10zm-5.4 0H9v4.44H4.6z"/><path d="M45.4 21.7a6.3 6.3 0 0 0-5.2-.6 6.6 6.6 0 0 0-2.9-4.4l-.5-.5-.5.6a6.1 6.1 0 0 0-1.1 4.2 5.6 5.6 0 0 0 1 2.8l-1.5.7a10.5 10.5 0 0 1-3 .5H2.2v.6a12.1 12.1 0 0 0 1 6.5l.4.8c2.8 4.6 7.7 6.6 13 6.6 10.3 0 18.7-4.4 22.7-14 2.6.2 5.2-.5 6.5-3l.2-.5ZM10.8 33.5a2.3 2.3 0 1 1 0-4.6 2.3 2.3 0 1 1 0 4.6M10 13.7h4.4v4.44H10z"/><path d="M26.5 19.3h4.4v4.44h-4.4zM21.1 8h4.4v4.44h-4.4zm0 11.3h4.4v4.44h-4.4zm-5.5-5.6H20v4.44h-4.4zm5.5 0h4.4v4.44h-4.4zm-5.5 5.6H20v4.44h-4.4z"/></g></g></svg>